<?xml version='1.0' encoding='utf-8'?>
<svg xmlns="http://www.w3.org/2000/svg" width="2048" height="2048" viewBox="0 0 541.86666 541.86668" version="1.1" id="svg5"> <defs id="defs2"/> <g id="layer1"> <g id="g1833" transform="translate(48.683342)" style="stroke-width:8;stroke-miterlimit:4;stroke-dasharray:none"> <path style="fill:#ffb380;fill-opacity:1;stroke:#000000;stroke-width:8;stroke-linecap:butt;stroke-linejoin:round;stroke-miterlimit:4;stroke-dasharray:none;stroke-opacity:1" d="m 148.16666,190.5 c 3.28536,97.12309 35.26565,187.59531 74.08334,276.48275 34.36936,-87.60985 69.3819,-174.91716 74.08333,-276.48275 -45.88202,15.23585 -95.79763,12.94747 -148.16667,0 z" id="path861"/> <path style="fill:none;stroke:#000000;stroke-width:8;stroke-linecap:butt;stroke-linejoin:miter;stroke-miterlimit:4;stroke-dasharray:none;stroke-opacity:1" d="m 148.16666,190.5 c 53.8069,25.42492 112.81564,45.5713 132.29167,105.83333 -22.21999,47.03954 -51.44454,78.29474 -84.66666,100.54167" id="path1347"/> </g> <path id="path1865" style="fill:#ffff00;stroke:#000000;stroke-width:8;stroke-linejoin:round;stroke-miterlimit:4;stroke-dasharray:none" d="m 358.98909,136.3694 c 0,11.95591 -2.42305,23.34589 -6.80486,33.70565 -4.38181,10.35977 8.162,29.98991 0.32693,37.82497 -7.83506,7.83507 -31.47098,8.4531 -41.83075,12.83491 -10.35976,4.38181 -20.03297,18.24995 -31.98888,18.24995 -11.95591,0 -35.30607,-17.6393 -45.66583,-22.02112 -10.35977,-4.38181 -32.33609,2.20485 -40.17115,-5.63021 -7.83507,-7.83507 4.13649,-30.89873 -0.24532,-41.2585 -4.38181,-10.35976 -6.80486,-21.74974 -6.80486,-33.70565 0,-47.82364 38.76872,-86.59236 86.59236,-86.592361 47.82364,10e-7 86.59236,38.768721 86.59236,86.592361 z"/> <ellipse style="fill:#ffffff;fill-opacity:1;stroke:none;stroke-width:9.47385;stroke-linecap:round;stroke-linejoin:round;stroke-miterlimit:4;stroke-dasharray:none" id="path4597" cx="127.03626" cy="221.03441" rx="42.740974" ry="29.987026" transform="matrix(0.82843298,-0.5600882,0.6706095,0.74181055,0,0)"/> </g> </svg>